<svg xmlns="http://www.w3.org/2000/svg" width="200" height="200" viewBox="0 0 200 200">
  <!-- Bat symbol inspired by iconic design -->
  <defs>
    <style>
      .bat { fill: #000000; }
    </style>
  </defs>
  
  <!-- Bat wings and body -->
  <g class="bat" transform="translate(100, 100)">
    <!-- Left wing -->
    <path d="M -80,-20 Q -90,-40 -95,-30 Q -100,-20 -90,-10 Q -85,0 -75,5 Q -65,8 -55,5 L -40,-5 Q -50,-15 -60,-20 Q -70,-22 -80,-20 Z"/>
    
    <!-- Right wing -->
    <path d="M 80,-20 Q 90,-40 95,-30 Q 100,-20 90,-10 Q 85,0 75,5 Q 65,8 55,5 L 40,-5 Q 50,-15 60,-20 Q 70,-22 80,-20 Z"/>
    
    <!-- Body and head -->
    <ellipse cx="0" cy="-15" rx="15" ry="20"/>
    
    <!-- Left inner wing -->
    <path d="M -40,-5 Q -45,10 -50,20 Q -55,25 -60,22 Q -58,15 -55,5 L -40,-5 Z"/>
    
    <!-- Right inner wing -->
    <path d="M 40,-5 Q 45,10 50,20 Q 55,25 60,22 Q 58,15 55,5 L 40,-5 Z"/>
    
    <!-- Bottom body -->
    <ellipse cx="0" cy="10" rx="12" ry="18"/>
    
    <!-- Ears -->
    <path d="M -8,-30 L -12,-40 L -5,-35 Z"/>
    <path d="M 8,-30 L 12,-40 L 5,-35 Z"/>
    
    <!-- Wing points (outer) -->
    <path d="M -95,-30 L -100,-45 L -90,-35 Z"/>
    <path d="M 95,-30 L 100,-45 L 90,-35 Z"/>
    
    <!-- Wing scallops -->
    <path d="M -75,5 Q -70,15 -65,18 Q -60,20 -55,18 L -60,22 Q -65,20 -70,15 Q -73,10 -75,5 Z"/>
    <path d="M 75,5 Q 70,15 65,18 Q 60,20 55,18 L 60,22 Q 65,20 70,15 Q 73,10 75,5 Z"/>
  </g>
</svg>
