<svg xmlns="http://www.w3.org/2000/svg" width="32" height="32" viewBox="0 0 32 32">
  <!-- Simplified bat symbol for favicon -->
  <rect width="32" height="32" fill="transparent"/>
  <g transform="translate(16, 16) scale(0.15)">
    <path fill="#000000" d="M -80,-20 Q -90,-40 -95,-30 Q -100,-20 -90,-10 Q -85,0 -75,5 Q -65,8 -55,5 L -40,-5 Q -50,-15 -60,-20 Q -70,-22 -80,-20 Z"/>
    <path fill="#000000" d="M 80,-20 Q 90,-40 95,-30 Q 100,-20 90,-10 Q 85,0 75,5 Q 65,8 55,5 L 40,-5 Q 50,-15 60,-20 Q 70,-22 80,-20 Z"/>
    <ellipse fill="#000000" cx="0" cy="-15" rx="15" ry="20"/>
    <path fill="#000000" d="M -40,-5 Q -45,10 -50,20 Q -55,25 -60,22 Q -58,15 -55,5 L -40,-5 Z"/>
    <path fill="#000000" d="M 40,-5 Q 45,10 50,20 Q 55,25 60,22 Q 58,15 55,5 L 40,-5 Z"/>
    <ellipse fill="#000000" cx="0" cy="10" rx="12" ry="18"/>
    <path fill="#000000" d="M -8,-30 L -12,-40 L -5,-35 Z"/>
    <path fill="#000000" d="M 8,-30 L 12,-40 L 5,-35 Z"/>
  </g>
</svg>
